<svg xmlns="http://www.w3.org/2000/svg" width="80" height="50"><g fill="none" fill-rule="evenodd"><path fill="#6F7383" d="M53.807 29.325c-.203-.404-.528-.688-1.015-.688h-.081c-.488 0-.853.284-1.056.688l-3.168 7.078a.778.778 0 00-.122.405c0 .485.366.85.853.85.366 0 .69-.203.812-.567l.69-1.537h3.98l.65 1.497c.163.364.447.606.853.606a.856.856 0 00.853-.849c0-.121-.04-.243-.122-.405l-3.127-7.078zm-2.396 4.57l1.26-2.912 1.258 2.913H51.41zm7.919-5.217a.874.874 0 00-.893.89v7.16a.9.9 0 00.893.889.9.9 0 00.893-.89v-7.16a.9.9 0 00-.893-.89zM29.97 40.57c-.407 0-.69.283-.813.606l-1.665 5.016-1.665-4.975c-.121-.364-.406-.647-.852-.647h-.122c-.406 0-.731.283-.853.647l-1.665 4.975-1.624-5.016a.878.878 0 00-.853-.606c-.447 0-.853.364-.853.809 0 .121.04.242.081.323l2.356 6.553c.162.404.446.687.852.687h.122c.406 0 .731-.283.853-.687l1.624-4.733 1.625 4.733c.122.404.446.687.853.687h.162c.406 0 .731-.283.853-.687l2.355-6.553a.76.76 0 00.081-.323c0-.486-.365-.81-.852-.81zM10.274 25.725c.447 0 .812-.404.812-.89v-2.588h1.3l3.045 3.235a.803.803 0 00.569.243c.447 0 .812-.404.812-.89a.89.89 0 00-.243-.606l-1.91-2.023c1.22-.162 2.153-1.254 2.153-2.589 0-1.456-1.096-2.629-2.477-2.629h-4.06c-.448 0-.813.405-.813.89v6.998c-.04.445.365.85.812.85zm.812-6.997h3.29c.446 0 .812.404.812.89 0 .485-.366.89-.812.89h-3.29v-1.78zm8.122 6.997h4.954c.447 0 .813-.404.813-.89 0-.485-.366-.89-.813-.89H20.02v-1.698h3.29c.446 0 .812-.405.812-.89 0-.486-.366-.89-.812-.89h-3.29v-1.74h4.142c.447 0 .813-.404.813-.89 0-.485-.366-.89-.813-.89h-4.954c-.447 0-.812.405-.812.89v6.998a.81.81 0 00.812.89zm7.878 0h4.955c.446 0 .812-.404.812-.89 0-.485-.366-.89-.812-.89h-4.143v-1.698h3.29c.447 0 .812-.405.812-.89 0-.486-.365-.89-.812-.89h-3.29v-1.74h4.143c.446 0 .812-.404.812-.89 0-.485-.366-.89-.812-.89h-4.955c-.446 0-.812.405-.812.89v6.998c0 .486.366.89.812.89zm7.878 0c.447 0 .813-.404.813-.89v-4.854l5.238 5.501a.803.803 0 00.569.243c.446 0 .812-.404.812-.89v-6.957c0-.485-.366-.89-.812-.89-.447 0-.812.405-.812.89v4.894l-5.198-5.5a.803.803 0 00-.569-.243c-.447 0-.812.404-.812.89v6.997c-.04.405.325.81.771.81zM10.112 36.727V29.73a.9.9 0 00-.894-.89.828.828 0 00-.609.242L5.28 32.44l-3.33-3.317a.828.828 0 00-.609-.243.9.9 0 00-.893.89v6.998a.9.9 0 00.893.89.9.9 0 00.894-.89v-4.935L4.67 34.26a.897.897 0 00.61.242c.202 0 .446-.08.608-.242l2.437-2.427v4.894a.9.9 0 00.893.89.9.9 0 00.894-.89zm5.847-7.847a4.359 4.359 0 00-4.385 4.369 4.359 4.359 0 004.385 4.368 4.359 4.359 0 004.386-4.368c0-2.427-1.99-4.369-4.386-4.369zm0 6.998a2.63 2.63 0 110-5.259 2.63 2.63 0 012.64 2.63c-.04 1.456-1.218 2.629-2.64 2.629zm7.35-2.185V29.77a.9.9 0 00-.893-.89.9.9 0 00-.893.89v3.923c0 2.185 1.787 3.924 3.939 3.924 2.193 0 3.939-1.78 3.939-3.924V29.77a.9.9 0 00-.893-.89.9.9 0 00-.894.89v3.923a2.18 2.18 0 01-2.193 2.185c-1.218 0-2.111-1.012-2.111-2.185zm15.595-4.813a.9.9 0 00-.894.89v4.894l-5.523-5.541a.828.828 0 00-.609-.243.9.9 0 00-.893.89v6.998a.9.9 0 00.893.89.9.9 0 00.894-.89v-4.935l5.522 5.5a.897.897 0 00.61.243.9.9 0 00.893-.89V29.73c-.04-.445-.406-.85-.893-.85zm2.192.85a.9.9 0 00.894.89h2.193v6.107a.9.9 0 00.893.89.9.9 0 00.894-.89V30.62h2.192a.9.9 0 00.894-.89.9.9 0 00-.894-.89H42.03c-.527.041-.934.446-.934.89zm29.117-.85a.9.9 0 00-.893.89v4.894l-5.523-5.541a.828.828 0 00-.61-.243.9.9 0 00-.893.89v6.998a.9.9 0 00.894.89.9.9 0 00.893-.89v-4.935l5.523 5.5a.897.897 0 00.61.243.9.9 0 00.893-.89V29.73c0-.445-.406-.85-.894-.85zM5.28 40.327H1.34a.9.9 0 00-.893.89v6.997a.9.9 0 00.893.89.9.9 0 00.894-.89v-1.739h3.045a3.079 3.079 0 003.086-3.074c0-1.74-1.38-3.074-3.086-3.074zm0 4.368H2.234v-2.629h3.045c.731 0 1.3.607 1.3 1.295.04.728-.569 1.334-1.3 1.334zm8.65-4.368a4.359 4.359 0 00-4.386 4.368 4.359 4.359 0 004.386 4.369 4.359 4.359 0 004.386-4.369 4.359 4.359 0 00-4.386-4.368zm0 6.957a2.63 2.63 0 110-5.258 2.63 2.63 0 012.64 2.629c0 1.497-1.178 2.63-2.64 2.63zm24.69-5.218a.9.9 0 00.894-.89.9.9 0 00-.894-.89H33.34a.9.9 0 00-.893.89v6.998a.9.9 0 00.893.89h5.28a.9.9 0 00.893-.89.9.9 0 00-.894-.89h-4.385v-1.74h3.532a.9.9 0 00.894-.89.9.9 0 00-.894-.889h-3.492v-1.699h4.345zm10.193.89a2.63 2.63 0 00-2.64-2.629h-4.385a.9.9 0 00-.894.89v6.997a.9.9 0 00.894.89.9.9 0 00.893-.89v-2.629h1.38l3.25 3.236a.897.897 0 00.609.243.9.9 0 00.893-.89.89.89 0 00-.243-.607l-2.03-2.022a2.623 2.623 0 002.273-2.589zm-2.64.85H42.68v-1.74h3.493a.9.9 0 01.893.89c0 .445-.406.85-.893.85zM4.306 25.886c.568 0 2.883-.12 3.289-1.981v-2.386c0-.486-.406-.93-.853-.93H4.63c-.487 0-.852.404-.852.93 0 .485.406.93.852.93h1.26v1.092a2.385 2.385 0 01-1.584.566c-1.422 0-2.6-1.213-2.6-2.75 0-1.497 1.178-2.75 2.6-2.75.65 0 1.34.242 1.827.808a.732.732 0 00.61.283c.446 0 .852-.404.852-.93 0-.243-.081-.485-.244-.647-.853-.89-1.949-1.335-3.045-1.335C1.949 16.746 0 18.768 0 21.316c0 2.508 1.95 4.57 4.305 4.57z"/><path fill="#00704A" d="M33.38.647c.366-.283.975-.364 1.503-.08.479.3 1.191.819 1.663 1.17l.368-.24c1.096-.81 2.07-.688 3.005-.162.093.055.174.114.243.175l30.941 20.816c1.348-1.413 3.455-3.639 3.455-3.639l5.117 4.733v5.015l-3.573 4.45.243-6.836-4.264-3.6s-3.492 3.074-3.452 2.993c.075-.106.145-.207.21-.302l-.21.262L39.467 2.203l-.127-.058c-.743-.312-1.408-.22-1.898.08-.244.161-1.828 1.132-3.94 2.467-.203.121-.446.283-.65.404-.283.162-.568.365-.852.526-5.32 3.317-12.67 7.969-13.076 8.17-.61.365-1.218.527-1.909.486-.69-.04-16.162 0-16.162 0l1.34-.647h14.254c.446 0 1.015.04 1.746-.364.641-.39 13.79-8.63 17.688-11.107a58.77 58.77 0 01-.917-.704c-.527-.364-.893-.404-1.502.04-.406.284-14.66 10.032-15.35 10.477-.69.445-1.016.526-1.747.526-.68.037-12.055.005-13.594 0h-.172l1.259-.729h12.02c.853.04 1.503-.283 2.03-.647.347-.259 7.858-5.322 12.287-8.315-.2-.148-.567-.426-.794-.624-.325-.283-.772-.283-1.137 0-.284.243-11.127 8.009-11.411 8.252-.406.323-.975.364-1.422.404-.41.037-8.663.006-10.008 0H5.24l1.177-.728h8.569c.65 0 1.259-.243 1.624-.526.65-.485 10.72-7.644 11.533-8.13.487-.283 1.3-.162 1.624 0 .213.151.832.64 1.133.878 1.425-.965 2.4-1.626 2.482-1.687z"/></g></svg>